<svg id="Layer_1" data-name="Layer 1" xmlns="http://www.w3.org/2000/svg" viewBox="0 0 1558.96 295.54"><path d="M908.7,75.92h31.88V223.7H908.7Z"/><path d="M964.58,75.92h31.88V223.7H964.58Z"/><path d="M1019.63,223.7v-107h31.88v107Zm15.94-155.36,18.8,18.8-18.8,18.8-18.8-18.8Z"/><path d="M1168.86,194.73q0,23,2.48,29h-31.25q-1.65-4.35-1.65-12.42v-1.45h-.21q-7.86,17-32.08,17-16.56,0-27.32-8.9t-10.77-23.38a32.39,32.39,0,0,1,1-8.28,35.94,35.94,0,0,1,2.48-6.83,19.39,19.39,0,0,1,4.25-5.49q2.79-2.58,4.86-4.24a23.74,23.74,0,0,1,6.11-3.21c2.69-1,4.72-1.83,6.1-2.38a43.64,43.64,0,0,1,6.63-1.76q4.54-.93,6-1.14l5.9-.82c3-.42,4.52-.63,4.65-.63q2.28-.41,5.59-.72c2.21-.21,3.86-.37,5-.52a33.25,33.25,0,0,0,3.83-.72,18.22,18.22,0,0,0,3.31-1,8.15,8.15,0,0,0,2.17-1.45,4.92,4.92,0,0,0,1.45-2.38,11.83,11.83,0,0,0,.42-3.31q0-6.61-4.35-10.24t-11.59-3.62q-7.25,0-11.9,3.83t-4.86,10.66H1074.9a37.86,37.86,0,0,1,13.45-26.71Q1100.56,113,1121.88,113q22.75,0,34.87,11.9t12.11,35.91Zm-52.78,10.76q9.74,0,16.25-8.08t6.52-22.14v-6.21q-3.93,7.45-20.49,10.76-18.42,3.72-18.42,13.87a10.59,10.59,0,0,0,4,8.38Q1108,205.49,1116.08,205.49Z"/><path d="M1250.12,113q38.49,0,38.49,47.81V223.7h-31.87V170.3a111.09,111.09,0,0,0-.52-11.59,47.47,47.47,0,0,0-2.17-9.73,14.45,14.45,0,0,0-5.38-7.55,16.34,16.34,0,0,0-9.53-2.59q-20.07,0-20.07,34.15V223.7h-31.88v-107h31.46v18Q1227.14,113,1250.12,113Z"/><path d="M1411.65,186.24q-2.69,19.45-17.18,30.21t-34.35,10.77q-24.22,0-41.4-15.42t-17.18-41.71q0-26.49,17.18-41.6t41.4-15.11q19.67,0,34.35,10.77t17.18,29.39h-29.39q-4.76-15.73-22.14-15.73a26.73,26.73,0,0,0-19.25,8.07q-8.28,8.07-8.28,24.21t8.18,24.43a26.28,26.28,0,0,0,19.35,8.27,25.79,25.79,0,0,0,14.28-4.13,18.37,18.37,0,0,0,8.07-12.42Z"/><path d="M1531.35,172.58q0,3.72-.2,6.21h-79.27q1.44,11.18,8.28,17.49t17.18,6.31q14.28,0,20.49-10.14h32.08a48.32,48.32,0,0,1-19.25,25.35q-14.09,9.63-34.15,9.63-24.63,0-40.36-15.84t-15.73-41.5q0-24.61,16-40.77t40.67-16.14q25.45,0,39.84,16.45T1531.35,172.58Zm-79.06-14.7h47.61q-1.25-10.35-7.35-15.83t-15.83-5.48a24.21,24.21,0,0,0-16.36,5.69Q1453.73,147.95,1452.29,157.88Z"/><path d="M862,223.7l-12.42-35.6H793.29l-12.42,35.6H746.3L801.15,75.92h41.61L897.19,223.7ZM821.64,104.9h-.41L802.4,162h38.28Z"/><path d="M437.9,223.55H400.19L368.7,175.07l-32.53,48.48H298.46l52.42-75.41L301.36,75.62h37.71l29.21,46.2,29-46.2H435l-48.9,73.55Z"/><path d="M493.9,75.62q38.75,0,59.67,19.06t20.93,53.46q0,35.84-20.82,55.63T493.9,223.55H447.08V75.62Zm-.41,119.76q22.58,0,34.81-11.92t12.22-35.32q0-22-12.12-33.16T493.9,103.8H480.23v91.58Z"/><path d="M585.75,223.35V75.62h59.46q25.49,0,40.3,11.39t14.82,30.67q0,16-8,26.21a37.48,37.48,0,0,1-20.2,13.57q10.56,3.94,15.75,15.95,1.44,3.32,5.17,14.09c.84,2.35,1.83,5.46,3,9.33s2.14,6.9,2.9,9.11,1.79,4.77,3.11,7.67a57.31,57.31,0,0,0,4.45,8.08v1.86H673a23.82,23.82,0,0,1-4.46-6.52,65,65,0,0,1-3.1-7.36c-.77-2.21-1.73-5.42-2.91-9.63s-2.1-7.36-2.79-9.43q-3.53-11-9.43-16.26t-18.54-5.29H618.9v54.29Zm33.15-80.81h24.24q11.4,0,18.13-5.49T668,122.24q0-9.33-6.63-14.71t-18.23-5.39H618.9Z"/><path d="M1541.08,116.75v2.84h-4.2v12.08h-3.34V119.59h-4.21v-2.84Z"/><path d="M1554.19,116.75H1559v14.92h-3.22V121h0l-3.24,10.72h-3.22L1546,121h0v10.72h-3.22V116.75h4.79l3.41,10.89Z"/><rect x="200.04" y="199.93" width="52.27" height="52.27" transform="translate(452.36 452.14) rotate(180)"/><rect x="43.22" y="43.34" width="52.27" height="52.27" transform="translate(138.72 138.95) rotate(180)"/><rect x="95.5" y="95.61" width="104.55" height="104.55" transform="translate(295.54 295.77) rotate(180)"/><rect x="121.71" y="232.44" width="52.27" height="52.27" transform="translate(69.55 545.97) rotate(-135)"/><rect x="121.56" y="10.83" width="52.27" height="52.27" transform="translate(225.99 167.53) rotate(-135)"/><rect x="43.34" y="200.04" width="52.27" height="52.27" transform="translate(-156.71 295.66) rotate(-90)"/><rect x="199.93" y="43.22" width="52.27" height="52.27" transform="translate(156.71 295.43) rotate(-90)"/><rect x="10.83" y="121.71" width="52.27" height="52.27" transform="translate(-93.72 69.44) rotate(-45)"/></svg>